<svg width="143" height="55" viewBox="0 0 143 55" fill="none" xmlns="http://www.w3.org/2000/svg">
<path d="M6 0.5H137C140.038 0.5 142.5 2.96243 142.5 6V49C142.5 52.0376 140.038 54.5 137 54.5H6C2.96243 54.5 0.5 52.0376 0.5 49V6C0.500001 2.96243 2.96243 0.5 6 0.5Z" stroke="white"/>
<path d="M55.9749 25H52.6794L57.7008 10.4545H61.6638L66.678 25H63.3826L59.7391 13.7784H59.6255L55.9749 25ZM55.7689 19.2827H63.553V21.6832H55.7689V19.2827ZM71.454 25.1776C70.6254 25.1776 69.8749 24.9645 69.2026 24.5384C68.535 24.1075 68.0047 23.4754 67.6117 22.642C67.2234 21.804 67.0293 20.7765 67.0293 19.5597C67.0293 18.3097 67.2305 17.2704 67.633 16.4418C68.0354 15.6084 68.5705 14.9858 69.2381 14.5739C69.9104 14.1572 70.6467 13.9489 71.4469 13.9489C72.0577 13.9489 72.5667 14.053 72.9739 14.2614C73.3858 14.465 73.7172 14.7206 73.9682 15.0284C74.2239 15.3314 74.418 15.6297 74.5506 15.9233H74.6429V10.4545H77.6614V25H74.6784V23.2528H74.5506C74.4085 23.5559 74.2073 23.8565 73.9469 24.1548C73.6912 24.4484 73.3574 24.6922 72.9455 24.8864C72.5383 25.0805 72.0411 25.1776 71.454 25.1776ZM72.4128 22.7699C72.9005 22.7699 73.3124 22.6373 73.6486 22.3722C73.9895 22.1023 74.2499 21.7259 74.4298 21.2429C74.6145 20.7599 74.7068 20.1941 74.7068 19.5455C74.7068 18.8968 74.6169 18.3333 74.4369 17.8551C74.257 17.3769 73.9966 17.0076 73.6557 16.7472C73.3148 16.4867 72.9005 16.3565 72.4128 16.3565C71.9156 16.3565 71.4966 16.4915 71.1557 16.7614C70.8148 17.0312 70.5567 17.4053 70.3815 17.8835C70.2064 18.3617 70.1188 18.9157 70.1188 19.5455C70.1188 20.1799 70.2064 20.741 70.3815 21.2287C70.5615 21.7116 70.8195 22.0904 71.1557 22.3651C71.4966 22.6349 71.9156 22.7699 72.4128 22.7699ZM83.7388 25.1776C82.9102 25.1776 82.1598 24.9645 81.4874 24.5384C80.8198 24.1075 80.2895 23.4754 79.8965 22.642C79.5082 21.804 79.3141 20.7765 79.3141 19.5597C79.3141 18.3097 79.5154 17.2704 79.9178 16.4418C80.3203 15.6084 80.8553 14.9858 81.5229 14.5739C82.1953 14.1572 82.9315 13.9489 83.7317 13.9489C84.3425 13.9489 84.8515 14.053 85.2587 14.2614C85.6707 14.465 86.0021 14.7206 86.253 15.0284C86.5087 15.3314 86.7029 15.6297 86.8354 15.9233H86.9278V10.4545H89.9462V25H86.9633V23.2528H86.8354C86.6934 23.5559 86.4921 23.8565 86.2317 24.1548C85.9761 24.4484 85.6422 24.6922 85.2303 24.8864C84.8231 25.0805 84.326 25.1776 83.7388 25.1776ZM84.6976 22.7699C85.1853 22.7699 85.5973 22.6373 85.9334 22.3722C86.2743 22.1023 86.5348 21.7259 86.7147 21.2429C86.8993 20.7599 86.9917 20.1941 86.9917 19.5455C86.9917 18.8968 86.9017 18.3333 86.7218 17.8551C86.5419 17.3769 86.2814 17.0076 85.9405 16.7472C85.5996 16.4867 85.1853 16.3565 84.6976 16.3565C84.2005 16.3565 83.7814 16.4915 83.4405 16.7614C83.0996 17.0312 82.8416 17.4053 82.6664 17.8835C82.4912 18.3617 82.4036 18.9157 82.4036 19.5455C82.4036 20.1799 82.4912 20.741 82.6664 21.2287C82.8463 21.7116 83.1044 22.0904 83.4405 22.3651C83.7814 22.6349 84.2005 22.7699 84.6976 22.7699ZM35.2749 45V30.4545H41.0135C42.1168 30.4545 43.0566 30.6652 43.8331 31.0866C44.6097 31.5033 45.2015 32.0833 45.6087 32.8267C46.0206 33.5653 46.2266 34.4176 46.2266 35.3835C46.2266 36.3494 46.0183 37.2017 45.6016 37.9403C45.1849 38.679 44.5813 39.2543 43.7905 39.6662C43.0045 40.0781 42.0528 40.2841 40.9354 40.2841H37.2777V37.8196H40.4383C41.0301 37.8196 41.5178 37.7178 41.9013 37.5142C42.2896 37.3059 42.5784 37.0194 42.7678 36.6548C42.9619 36.2855 43.059 35.8617 43.059 35.3835C43.059 34.9006 42.9619 34.4792 42.7678 34.1193C42.5784 33.7547 42.2896 33.473 41.9013 33.2741C41.5131 33.0705 41.0206 32.9688 40.4241 32.9688H38.3502V45H35.2749ZM47.7373 45V34.0909H50.6705V35.9943H50.7842C50.983 35.3172 51.3169 34.8059 51.7856 34.4602C52.2544 34.1098 52.7941 33.9347 53.4049 33.9347C53.5564 33.9347 53.7198 33.9441 53.895 33.9631C54.0702 33.982 54.2241 34.008 54.3566 34.0412V36.7259C54.2146 36.6832 54.0181 36.6454 53.7671 36.6122C53.5162 36.5791 53.2866 36.5625 53.0782 36.5625C52.6331 36.5625 52.2354 36.6596 51.885 36.8537C51.5394 37.0431 51.2648 37.3082 51.0612 37.6491C50.8623 37.9901 50.7629 38.383 50.7629 38.8281V45H47.7373ZM59.9121 45.2131C58.8088 45.2131 57.8548 44.9787 57.0499 44.5099C56.2497 44.0365 55.6318 43.3783 55.1962 42.5355C54.7606 41.688 54.5427 40.7055 54.5427 39.5881C54.5427 38.4612 54.7606 37.4763 55.1962 36.6335C55.6318 35.786 56.2497 35.1278 57.0499 34.6591C57.8548 34.1856 58.8088 33.9489 59.9121 33.9489C61.0153 33.9489 61.967 34.1856 62.7672 34.6591C63.5721 35.1278 64.1924 35.786 64.628 36.6335C65.0636 37.4763 65.2814 38.4612 65.2814 39.5881C65.2814 40.7055 65.0636 41.688 64.628 42.5355C64.1924 43.3783 63.5721 44.0365 62.7672 44.5099C61.967 44.9787 61.0153 45.2131 59.9121 45.2131ZM59.9263 42.8693C60.4282 42.8693 60.8472 42.7273 61.1834 42.4432C61.5195 42.1544 61.7729 41.7614 61.9433 41.2642C62.1185 40.767 62.2061 40.2012 62.2061 39.5668C62.2061 38.9323 62.1185 38.3665 61.9433 37.8693C61.7729 37.3722 61.5195 36.9792 61.1834 36.6903C60.8472 36.4015 60.4282 36.2571 59.9263 36.2571C59.4196 36.2571 58.9935 36.4015 58.6479 36.6903C58.307 36.9792 58.0489 37.3722 57.8737 37.8693C57.7033 38.3665 57.618 38.9323 57.618 39.5668C57.618 40.2012 57.7033 40.767 57.8737 41.2642C58.0489 41.7614 58.307 42.1544 58.6479 42.4432C58.9935 42.7273 59.4196 42.8693 59.9263 42.8693ZM70.8386 45.1776C70.01 45.1776 69.2595 44.9645 68.5872 44.5384C67.9196 44.1075 67.3893 43.4754 66.9963 42.642C66.608 41.804 66.4139 40.7765 66.4139 39.5597C66.4139 38.3097 66.6151 37.2704 67.0176 36.4418C67.42 35.6084 67.9551 34.9858 68.6227 34.5739C69.295 34.1572 70.0313 33.9489 70.8315 33.9489C71.4423 33.9489 71.9513 34.053 72.3585 34.2614C72.7704 34.465 73.1019 34.7206 73.3528 35.0284C73.6085 35.3314 73.8026 35.6297 73.9352 35.9233H74.0275V30.4545H77.046V45H74.063V43.2528H73.9352C73.7931 43.5559 73.5919 43.8565 73.3315 44.1548C73.0758 44.4484 72.742 44.6922 72.3301 44.8864C71.9229 45.0805 71.4257 45.1776 70.8386 45.1776ZM71.7974 42.7699C72.2851 42.7699 72.697 42.6373 73.0332 42.3722C73.3741 42.1023 73.6345 41.7259 73.8145 41.2429C73.9991 40.7599 74.0914 40.1941 74.0914 39.5455C74.0914 38.8968 74.0015 38.3333 73.8216 37.8551C73.6416 37.3769 73.3812 37.0076 73.0403 36.7472C72.6994 36.4867 72.2851 36.3565 71.7974 36.3565C71.3002 36.3565 70.8812 36.4915 70.5403 36.7614C70.1994 37.0312 69.9413 37.4053 69.7662 37.8835C69.591 38.3617 69.5034 38.9157 69.5034 39.5455C69.5034 40.1799 69.591 40.741 69.7662 41.2287C69.9461 41.7116 70.2041 42.0904 70.5403 42.3651C70.8812 42.6349 71.3002 42.7699 71.7974 42.7699ZM86.0993 40.3551V34.0909H89.1249V45H86.22V43.0185H86.1064C85.8602 43.6577 85.4506 44.1714 84.8777 44.5597C84.3095 44.9479 83.6159 45.142 82.7967 45.142C82.0676 45.142 81.426 44.9763 80.872 44.6449C80.318 44.3134 79.8848 43.8423 79.5723 43.2315C79.2645 42.6207 79.1083 41.8892 79.1036 41.0369V34.0909H82.1291V40.4972C82.1339 41.1411 82.3067 41.6501 82.6476 42.0241C82.9885 42.3982 83.4454 42.5852 84.0183 42.5852C84.3829 42.5852 84.7238 42.5024 85.0411 42.3366C85.3583 42.1662 85.614 41.9152 85.8081 41.5838C86.007 41.2524 86.104 40.8428 86.0993 40.3551ZM96.0439 45.2131C94.9265 45.2131 93.9653 44.9763 93.1604 44.5028C92.3602 44.0246 91.7447 43.3617 91.3138 42.5142C90.8877 41.6667 90.6746 40.6913 90.6746 39.5881C90.6746 38.4706 90.8901 37.4905 91.3209 36.6477C91.7565 35.8002 92.3744 35.1397 93.1746 34.6662C93.9748 34.188 94.9265 33.9489 96.0297 33.9489C96.9814 33.9489 97.8148 34.1217 98.5297 34.4673C99.2447 34.813 99.8105 35.2983 100.227 35.9233C100.644 36.5483 100.873 37.2822 100.916 38.125H98.061C97.9805 37.5805 97.7674 37.1425 97.4218 36.8111C97.0809 36.4749 96.6334 36.3068 96.0795 36.3068C95.6107 36.3068 95.2011 36.4347 94.8508 36.6903C94.5051 36.9413 94.2352 37.3082 94.0411 37.7912C93.847 38.2741 93.7499 38.8589 93.7499 39.5455C93.7499 40.2415 93.8446 40.8333 94.034 41.321C94.2281 41.8087 94.5004 42.1804 94.8508 42.4361C95.2011 42.6918 95.6107 42.8196 96.0795 42.8196C96.4251 42.8196 96.7352 42.7486 97.0099 42.6065C97.2892 42.4645 97.5188 42.2585 97.6988 41.9886C97.8834 41.714 98.0042 41.3849 98.061 41.0014H100.916C100.869 41.8348 100.641 42.5687 100.234 43.2031C99.8318 43.8329 99.2755 44.3253 98.5652 44.6804C97.855 45.0355 97.0146 45.2131 96.0439 45.2131ZM108.226 34.0909V36.3636H101.656V34.0909H108.226ZM103.148 31.4773H106.173V41.6477C106.173 41.9271 106.216 42.1449 106.301 42.3011C106.386 42.4527 106.505 42.5592 106.656 42.6207C106.812 42.6823 106.992 42.7131 107.196 42.7131C107.338 42.7131 107.48 42.7012 107.622 42.6776C107.764 42.6491 107.873 42.6278 107.949 42.6136L108.425 44.8651C108.273 44.9124 108.06 44.9669 107.785 45.0284C107.511 45.0947 107.177 45.1349 106.784 45.1491C106.055 45.1776 105.416 45.0805 104.866 44.858C104.322 44.6354 103.898 44.2898 103.595 43.821C103.292 43.3523 103.143 42.7604 103.148 42.0455V31.4773Z" fill="white"/>
</svg>
