<svg width="118" height="136" viewBox="0 0 118 136" fill="none" xmlns="http://www.w3.org/2000/svg">
<rect width="118" height="136" rx="4" fill="#107243"/>
<path d="M58.5 24C78.1648 24 94 39.7284 94 59C94 78.2716 78.1648 94 58.5 94C38.8352 94 23 78.2716 23 59C23 39.7284 38.8352 24 58.5 24Z" stroke="white" stroke-width="10"/>
<mask id="path-3-inside-1_118_1295" fill="white">
<path d="M18 59C18 66.9113 20.3753 74.6448 24.8255 81.2228C29.2757 87.8008 35.6009 92.9277 43.0013 95.9552C50.4017 98.9827 58.5449 99.7748 66.4012 98.2314C74.2574 96.688 81.4738 92.8784 87.1378 87.2843C92.8019 81.6902 96.6591 74.5629 98.2218 66.8036C99.7845 59.0444 98.9825 51.0017 95.9171 43.6927C92.8518 36.3836 87.6608 30.1365 81.0006 25.7412C74.3404 21.346 66.5101 19 58.5 19V28.9391C64.5198 28.9391 70.4044 30.7022 75.4097 34.0053C80.415 37.3084 84.3161 42.0033 86.6198 47.4962C88.9235 52.9891 89.5262 59.0333 88.3518 64.8646C87.1774 70.6958 84.2786 76.0522 80.0219 80.2562C75.7653 84.4603 70.342 87.3233 64.4379 88.4833C58.5338 89.6432 52.414 89.0479 46.8524 86.7726C41.2908 84.4974 36.5373 80.6444 33.1929 75.7009C29.8484 70.7574 28.0634 64.9455 28.0634 59H18Z"/>
</mask>
<path d="M18 59C18 66.9113 20.3753 74.6448 24.8255 81.2228C29.2757 87.8008 35.6009 92.9277 43.0013 95.9552C50.4017 98.9827 58.5449 99.7748 66.4012 98.2314C74.2574 96.688 81.4738 92.8784 87.1378 87.2843C92.8019 81.6902 96.6591 74.5629 98.2218 66.8036C99.7845 59.0444 98.9825 51.0017 95.9171 43.6927C92.8518 36.3836 87.6608 30.1365 81.0006 25.7412C74.3404 21.346 66.5101 19 58.5 19V28.9391C64.5198 28.9391 70.4044 30.7022 75.4097 34.0053C80.415 37.3084 84.3161 42.0033 86.6198 47.4962C88.9235 52.9891 89.5262 59.0333 88.3518 64.8646C87.1774 70.6958 84.2786 76.0522 80.0219 80.2562C75.7653 84.4603 70.342 87.3233 64.4379 88.4833C58.5338 89.6432 52.414 89.0479 46.8524 86.7726C41.2908 84.4974 36.5373 80.6444 33.1929 75.7009C29.8484 70.7574 28.0634 64.9455 28.0634 59H18Z" stroke="#AAE5AF" stroke-width="20" mask="url(#path-3-inside-1_118_1295)"/>
<path d="M27.6733 116H26.4404C26.3675 115.645 26.2398 115.334 26.0576 115.065C25.8786 114.797 25.6598 114.571 25.4013 114.389C25.1461 114.204 24.8627 114.064 24.5512 113.972C24.2396 113.879 23.9148 113.832 23.5767 113.832C22.9603 113.832 22.4018 113.988 21.9013 114.3C21.4041 114.611 21.0081 115.07 20.7131 115.677C20.4214 116.283 20.2756 117.027 20.2756 117.909C20.2756 118.791 20.4214 119.535 20.7131 120.141C21.0081 120.748 21.4041 121.207 21.9013 121.518C22.4018 121.83 22.9603 121.986 23.5767 121.986C23.9148 121.986 24.2396 121.939 24.5512 121.847C24.8627 121.754 25.1461 121.616 25.4013 121.434C25.6598 121.248 25.8786 121.021 26.0576 120.753C26.2398 120.481 26.3675 120.17 26.4404 119.818H27.6733C27.5805 120.339 27.4115 120.804 27.1662 121.215C26.921 121.626 26.616 121.976 26.2514 122.264C25.8869 122.549 25.4775 122.766 25.0235 122.915C24.5727 123.065 24.0905 123.139 23.5767 123.139C22.7084 123.139 21.9361 122.927 21.26 122.503C20.5838 122.079 20.0519 121.475 19.6641 120.693C19.2763 119.911 19.0824 118.983 19.0824 117.909C19.0824 116.835 19.2763 115.907 19.6641 115.125C20.0519 114.343 20.5838 113.74 21.26 113.315C21.9361 112.891 22.7084 112.679 23.5767 112.679C24.0905 112.679 24.5727 112.754 25.0235 112.903C25.4775 113.052 25.8869 113.271 26.2514 113.559C26.616 113.844 26.921 114.192 27.1662 114.603C27.4115 115.011 27.5805 115.476 27.6733 116ZM31.3238 123.179C30.8399 123.179 30.4007 123.088 30.0063 122.906C29.6119 122.72 29.2987 122.453 29.0667 122.105C28.8346 121.754 28.7186 121.33 28.7186 120.832C28.7186 120.395 28.8048 120.04 28.9772 119.768C29.1495 119.493 29.3799 119.278 29.6682 119.122C29.9566 118.966 30.2748 118.85 30.6228 118.774C30.9741 118.695 31.3271 118.632 31.6817 118.585C32.1457 118.526 32.5219 118.481 32.8103 118.451C33.1019 118.418 33.314 118.363 33.4466 118.287C33.5825 118.211 33.6505 118.078 33.6505 117.889V117.849C33.6505 117.359 33.5162 116.978 33.2478 116.706C32.9826 116.434 32.5799 116.298 32.0397 116.298C31.4795 116.298 31.0404 116.421 30.7222 116.666C30.404 116.911 30.1803 117.173 30.051 117.452L28.9374 117.054C29.1363 116.59 29.4014 116.229 29.7328 115.97C30.0676 115.708 30.4322 115.526 30.8266 115.423C31.2243 115.317 31.6154 115.264 31.9999 115.264C32.2452 115.264 32.5269 115.294 32.8451 115.354C33.1666 115.41 33.4765 115.528 33.7748 115.707C34.0764 115.886 34.3266 116.156 34.5255 116.517C34.7243 116.878 34.8238 117.362 34.8238 117.969V123H33.6505V121.966H33.5908C33.5113 122.132 33.3787 122.309 33.1931 122.498C33.0075 122.687 32.7605 122.848 32.4523 122.98C32.1441 123.113 31.7679 123.179 31.3238 123.179ZM31.5027 122.125C31.9667 122.125 32.3578 122.034 32.676 121.852C32.9975 121.669 33.2395 121.434 33.4019 121.146C33.5676 120.857 33.6505 120.554 33.6505 120.236V119.162C33.6007 119.222 33.4914 119.276 33.3223 119.326C33.1566 119.372 32.9644 119.414 32.7456 119.45C32.5302 119.483 32.3197 119.513 32.1142 119.54C31.9121 119.563 31.748 119.583 31.6221 119.599C31.3171 119.639 31.0321 119.704 30.7669 119.793C30.5051 119.879 30.293 120.01 30.1306 120.186C29.9715 120.358 29.8919 120.594 29.8919 120.892C29.8919 121.3 30.0427 121.608 30.3444 121.817C30.6493 122.022 31.0354 122.125 31.5027 122.125ZM36.5353 125.864V115.364H37.6688V116.577H37.808C37.8942 116.444 38.0135 116.275 38.166 116.07C38.3217 115.861 38.5438 115.675 38.8321 115.513C39.1238 115.347 39.5182 115.264 40.0154 115.264C40.6584 115.264 41.2251 115.425 41.7157 115.746C42.2062 116.068 42.589 116.524 42.8641 117.114C43.1392 117.704 43.2767 118.4 43.2767 119.202C43.2767 120.01 43.1392 120.711 42.8641 121.305C42.589 121.895 42.2079 122.352 41.7206 122.677C41.2334 122.998 40.6716 123.159 40.0353 123.159C39.5447 123.159 39.152 123.078 38.857 122.915C38.562 122.75 38.335 122.562 38.1759 122.354C38.0168 122.142 37.8942 121.966 37.808 121.827H37.7086V125.864H36.5353ZM37.6887 119.182C37.6887 119.759 37.7732 120.267 37.9422 120.708C38.1113 121.146 38.3582 121.489 38.683 121.737C39.0078 121.982 39.4055 122.105 39.8762 122.105C40.3667 122.105 40.776 121.976 41.1042 121.717C41.4356 121.455 41.6842 121.104 41.8499 120.663C42.0189 120.219 42.1035 119.725 42.1035 119.182C42.1035 118.645 42.0206 118.161 41.8549 117.73C41.6925 117.296 41.4455 116.953 41.1141 116.701C40.786 116.446 40.3733 116.318 39.8762 116.318C39.3989 116.318 38.9979 116.439 38.6731 116.681C38.3482 116.92 38.103 117.254 37.9373 117.685C37.7715 118.113 37.6887 118.612 37.6887 119.182ZM46.8837 123.179C46.3998 123.179 45.9606 123.088 45.5662 122.906C45.1718 122.72 44.8586 122.453 44.6266 122.105C44.3946 121.754 44.2786 121.33 44.2786 120.832C44.2786 120.395 44.3647 120.04 44.5371 119.768C44.7094 119.493 44.9398 119.278 45.2281 119.122C45.5165 118.966 45.8347 118.85 46.1827 118.774C46.534 118.695 46.887 118.632 47.2416 118.585C47.7056 118.526 48.0818 118.481 48.3702 118.451C48.6618 118.418 48.874 118.363 49.0065 118.287C49.1424 118.211 49.2104 118.078 49.2104 117.889V117.849C49.2104 117.359 49.0761 116.978 48.8077 116.706C48.5425 116.434 48.1398 116.298 47.5996 116.298C47.0395 116.298 46.6003 116.421 46.2821 116.666C45.9639 116.911 45.7402 117.173 45.611 117.452L44.4973 117.054C44.6962 116.59 44.9613 116.229 45.2928 115.97C45.6275 115.708 45.9921 115.526 46.3865 115.423C46.7842 115.317 47.1753 115.264 47.5598 115.264C47.8051 115.264 48.0868 115.294 48.405 115.354C48.7265 115.41 49.0364 115.528 49.3347 115.707C49.6363 115.886 49.8865 116.156 50.0854 116.517C50.2842 116.878 50.3837 117.362 50.3837 117.969V123H49.2104V121.966H49.1507C49.0712 122.132 48.9386 122.309 48.753 122.498C48.5674 122.687 48.3205 122.848 48.0122 122.98C47.704 123.113 47.3278 123.179 46.8837 123.179ZM47.0627 122.125C47.5267 122.125 47.9178 122.034 48.236 121.852C48.5574 121.669 48.7994 121.434 48.9618 121.146C49.1275 120.857 49.2104 120.554 49.2104 120.236V119.162C49.1607 119.222 49.0513 119.276 48.8823 119.326C48.7165 119.372 48.5243 119.414 48.3056 119.45C48.0901 119.483 47.8797 119.513 47.6742 119.54C47.472 119.563 47.3079 119.583 47.182 119.599C46.877 119.639 46.592 119.704 46.3269 119.793C46.065 119.879 45.8529 120.01 45.6905 120.186C45.5314 120.358 45.4519 120.594 45.4519 120.892C45.4519 121.3 45.6027 121.608 45.9043 121.817C46.2092 122.022 46.5953 122.125 47.0627 122.125ZM55.1975 123.159C54.4816 123.159 53.8651 122.99 53.348 122.652C52.831 122.314 52.4333 121.848 52.1548 121.255C51.8764 120.662 51.7372 119.984 51.7372 119.222C51.7372 118.446 51.8798 117.762 52.1648 117.168C52.4531 116.572 52.8542 116.106 53.3679 115.771C53.885 115.433 54.4882 115.264 55.1776 115.264C55.7145 115.264 56.1984 115.364 56.6293 115.562C57.0602 115.761 57.4131 116.04 57.6882 116.398C57.9633 116.756 58.134 117.173 58.2003 117.651H57.027C56.9375 117.303 56.7387 116.994 56.4304 116.726C56.1255 116.454 55.7145 116.318 55.1975 116.318C54.7401 116.318 54.339 116.437 53.9943 116.676C53.653 116.911 53.3861 117.245 53.1939 117.675C53.005 118.103 52.9105 118.605 52.9105 119.182C52.9105 119.772 53.0033 120.286 53.1889 120.723C53.3779 121.161 53.643 121.5 53.9844 121.742C54.3291 121.984 54.7334 122.105 55.1975 122.105C55.5024 122.105 55.7791 122.052 56.0277 121.946C56.2763 121.84 56.4868 121.688 56.6591 121.489C56.8315 121.29 56.9541 121.051 57.027 120.773H58.2003C58.134 121.223 57.97 121.629 57.7081 121.991C57.4496 122.349 57.1066 122.634 56.679 122.846C56.2548 123.055 55.7609 123.159 55.1975 123.159ZM59.4855 123V115.364H60.6588V123H59.4855ZM60.0821 114.091C59.8534 114.091 59.6562 114.013 59.4905 113.857C59.3281 113.701 59.2469 113.514 59.2469 113.295C59.2469 113.077 59.3281 112.889 59.4905 112.734C59.6562 112.578 59.8534 112.5 60.0821 112.5C60.3108 112.5 60.5063 112.578 60.6687 112.734C60.8345 112.889 60.9173 113.077 60.9173 113.295C60.9173 113.514 60.8345 113.701 60.6687 113.857C60.5063 114.013 60.3108 114.091 60.0821 114.091ZM65.6988 115.364V116.358H61.7414V115.364H65.6988ZM62.8948 113.534H64.0681V120.812C64.0681 121.144 64.1162 121.393 64.2123 121.558C64.3117 121.721 64.4377 121.83 64.5901 121.886C64.7459 121.939 64.91 121.966 65.0823 121.966C65.2116 121.966 65.3176 121.959 65.4005 121.946C65.4834 121.929 65.5496 121.916 65.5994 121.906L65.838 122.96C65.7584 122.99 65.6474 123.02 65.5049 123.05C65.3624 123.083 65.1817 123.099 64.963 123.099C64.6316 123.099 64.3067 123.028 63.9886 122.886C63.6737 122.743 63.4119 122.526 63.203 122.234C62.9976 121.943 62.8948 121.575 62.8948 121.131V113.534ZM67.7894 125.864C67.5905 125.864 67.4132 125.847 67.2574 125.814C67.1017 125.784 66.9939 125.754 66.9343 125.724L67.2326 124.69C67.5176 124.763 67.7695 124.79 67.9883 124.77C68.207 124.75 68.4009 124.652 68.5699 124.477C68.7423 124.304 68.8997 124.024 69.0422 123.636L69.261 123.04L66.4371 115.364H67.7098L69.8178 121.449H69.8973L72.0053 115.364H73.278L70.0366 124.114C69.8907 124.508 69.7101 124.835 69.4946 125.093C69.2792 125.355 69.029 125.549 68.7439 125.675C68.4622 125.801 68.144 125.864 67.7894 125.864Z" fill="white"/>
</svg>
