<svg width="112" height="43" viewBox="0 0 112 43" fill="none" xmlns="http://www.w3.org/2000/svg">
<path d="M6 0.5H106C109.038 0.5 111.5 2.96243 111.5 6V37C111.5 40.0376 109.038 42.5 106 42.5H6C2.96243 42.5 0.5 40.0376 0.5 37V6C0.5 2.96243 2.96243 0.5 6 0.5Z" stroke="white"/>
<path d="M23.9642 29V14.4545H27.0395V26.4645H33.2753V29H23.9642ZM39.754 29.2131C38.6508 29.2131 37.6967 28.9787 36.8918 28.5099C36.0916 28.0365 35.4737 27.3783 35.0381 26.5355C34.6025 25.688 34.3847 24.7055 34.3847 23.5881C34.3847 22.4612 34.6025 21.4763 35.0381 20.6335C35.4737 19.786 36.0916 19.1278 36.8918 18.6591C37.6967 18.1856 38.6508 17.9489 39.754 17.9489C40.8572 17.9489 41.8089 18.1856 42.6091 18.6591C43.4141 19.1278 44.0343 19.786 44.4699 20.6335C44.9055 21.4763 45.1233 22.4612 45.1233 23.5881C45.1233 24.7055 44.9055 25.688 44.4699 26.5355C44.0343 27.3783 43.4141 28.0365 42.6091 28.5099C41.8089 28.9787 40.8572 29.2131 39.754 29.2131ZM39.7682 26.8693C40.2701 26.8693 40.6892 26.7273 41.0253 26.4432C41.3615 26.1544 41.6148 25.7614 41.7853 25.2642C41.9605 24.767 42.0481 24.2012 42.0481 23.5668C42.0481 22.9323 41.9605 22.3665 41.7853 21.8693C41.6148 21.3722 41.3615 20.9792 41.0253 20.6903C40.6892 20.4015 40.2701 20.2571 39.7682 20.2571C39.2616 20.2571 38.8355 20.4015 38.4898 20.6903C38.1489 20.9792 37.8909 21.3722 37.7157 21.8693C37.5452 22.3665 37.46 22.9323 37.46 23.5668C37.46 24.2012 37.5452 24.767 37.7157 25.2642C37.8909 25.7614 38.1489 26.1544 38.4898 26.4432C38.8355 26.7273 39.2616 26.8693 39.7682 26.8693ZM51.5754 33.3182C50.5953 33.3182 49.7549 33.1832 49.0541 32.9134C48.3581 32.6482 47.8041 32.286 47.3922 31.8267C46.9803 31.3674 46.7128 30.8513 46.5896 30.2784L49.3879 29.902C49.4732 30.1198 49.6081 30.3234 49.7928 30.5128C49.9774 30.7022 50.2213 30.8537 50.5243 30.9673C50.8321 31.0857 51.2061 31.1449 51.6465 31.1449C52.3046 31.1449 52.8467 30.9839 53.2729 30.6619C53.7038 30.3447 53.9192 29.812 53.9192 29.0639V27.0682H53.7914C53.6588 27.3712 53.4599 27.6577 53.1948 27.9276C52.9296 28.1974 52.5887 28.4176 52.172 28.5881C51.7554 28.7585 51.2582 28.8438 50.6806 28.8438C49.8614 28.8438 49.1157 28.6544 48.4433 28.2756C47.7757 27.892 47.2431 27.3073 46.8453 26.5213C46.4523 25.7306 46.2558 24.7315 46.2558 23.5241C46.2558 22.2884 46.4571 21.2562 46.8595 20.4276C47.262 19.599 47.797 18.9787 48.4646 18.5668C49.137 18.1548 49.8733 17.9489 50.6735 17.9489C51.2842 17.9489 51.7956 18.053 52.2075 18.2614C52.6195 18.465 52.9509 18.7206 53.2019 19.0284C53.4575 19.3314 53.654 19.6297 53.7914 19.9233H53.905V18.0909H56.9092V29.1065C56.9092 30.0346 56.682 30.8111 56.2274 31.4361C55.7729 32.0611 55.1431 32.5298 54.3382 32.8423C53.538 33.1596 52.6171 33.3182 51.5754 33.3182ZM51.6394 26.571C52.1271 26.571 52.539 26.4503 52.8752 26.2088C53.2161 25.9626 53.4765 25.6122 53.6564 25.1577C53.8411 24.6984 53.9334 24.1491 53.9334 23.5099C53.9334 22.8707 53.8434 22.3168 53.6635 21.848C53.4836 21.3745 53.2232 21.0076 52.8823 20.7472C52.5413 20.4867 52.1271 20.3565 51.6394 20.3565C51.1422 20.3565 50.7232 20.4915 50.3823 20.7614C50.0413 21.0265 49.7833 21.3958 49.6081 21.8693C49.4329 22.3428 49.3453 22.8897 49.3453 23.5099C49.3453 24.1397 49.4329 24.6842 49.6081 25.1435C49.788 25.598 50.0461 25.9508 50.3823 26.2017C50.7232 26.4479 51.1422 26.571 51.6394 26.571ZM63.8159 29.2131C62.7127 29.2131 61.7586 28.9787 60.9537 28.5099C60.1535 28.0365 59.5356 27.3783 59.1 26.5355C58.6644 25.688 58.4466 24.7055 58.4466 23.5881C58.4466 22.4612 58.6644 21.4763 59.1 20.6335C59.5356 19.786 60.1535 19.1278 60.9537 18.6591C61.7586 18.1856 62.7127 17.9489 63.8159 17.9489C64.9191 17.9489 65.8708 18.1856 66.671 18.6591C67.4759 19.1278 68.0962 19.786 68.5318 20.6335C68.9674 21.4763 69.1852 22.4612 69.1852 23.5881C69.1852 24.7055 68.9674 25.688 68.5318 26.5355C68.0962 27.3783 67.4759 28.0365 66.671 28.5099C65.8708 28.9787 64.9191 29.2131 63.8159 29.2131ZM63.8301 26.8693C64.332 26.8693 64.751 26.7273 65.0872 26.4432C65.4234 26.1544 65.6767 25.7614 65.8471 25.2642C66.0223 24.767 66.1099 24.2012 66.1099 23.5668C66.1099 22.9323 66.0223 22.3665 65.8471 21.8693C65.6767 21.3722 65.4234 20.9792 65.0872 20.6903C64.751 20.4015 64.332 20.2571 63.8301 20.2571C63.3235 20.2571 62.8973 20.4015 62.5517 20.6903C62.2108 20.9792 61.9527 21.3722 61.7775 21.8693C61.6071 22.3665 61.5219 22.9323 61.5219 23.5668C61.5219 24.2012 61.6071 24.767 61.7775 25.2642C61.9527 25.7614 62.2108 26.1544 62.5517 26.4432C62.8973 26.7273 63.3235 26.8693 63.8301 26.8693ZM77.7183 24.3551V18.0909H80.7438V29H77.839V27.0185H77.7254C77.4792 27.6577 77.0696 28.1714 76.4967 28.5597C75.9285 28.9479 75.2349 29.142 74.4157 29.142C73.6866 29.142 73.045 28.9763 72.491 28.6449C71.937 28.3134 71.5038 27.8423 71.1913 27.2315C70.8835 26.6207 70.7273 25.8892 70.7225 25.0369V18.0909H73.7481V24.4972C73.7528 25.1411 73.9257 25.6501 74.2666 26.0241C74.6075 26.3982 75.0644 26.5852 75.6373 26.5852C76.0019 26.5852 76.3428 26.5024 76.66 26.3366C76.9773 26.1662 77.233 25.9152 77.4271 25.5838C77.626 25.2524 77.723 24.8428 77.7183 24.3551ZM88.5365 18.0909V20.3636H81.9669V18.0909H88.5365ZM83.4584 15.4773H86.484V25.6477C86.484 25.9271 86.5266 26.1449 86.6118 26.3011C86.697 26.4527 86.8154 26.5592 86.9669 26.6207C87.1232 26.6823 87.3031 26.7131 87.5067 26.7131C87.6487 26.7131 87.7908 26.7012 87.9328 26.6776C88.0749 26.6491 88.1838 26.6278 88.2595 26.6136L88.7354 28.8651C88.5839 28.9124 88.3708 28.9669 88.0962 29.0284C87.8215 29.0947 87.4877 29.1349 87.0947 29.1491C86.3656 29.1776 85.7264 29.0805 85.1771 28.858C84.6326 28.6354 84.2089 28.2898 83.9058 27.821C83.6028 27.3523 83.4536 26.7604 83.4584 26.0455V15.4773Z" fill="white"/>
</svg>
