<svg width="261" height="63" viewBox="0 0 261 63" fill="none" xmlns="http://www.w3.org/2000/svg">
<path d="M57.7803 14.3652V40.6338L31.5 53.8799L5.21973 40.6338V14.3652L31.5 1.11914L57.7803 14.3652Z" stroke="white" stroke-width="2"/>
<path d="M10.5944 42.3379L10.9106 28.411L21.3469 22.8402L21.9794 13.6485L31.1506 8.91331L41.5869 14.2055L41.5 23L52.9719 29.2466V42.3379L31.7831 53.4794L10.5944 42.3379Z" fill="#D9D9D9"/>
<path d="M11 29L11 42.5" stroke="white" stroke-width="2" stroke-linecap="round"/>
<path d="M11.5431 28.968L31.4668 37.8812" stroke="white" stroke-width="2" stroke-linecap="round"/>
<path d="M31 54V38" stroke="white" stroke-width="2"/>
<path d="M52 29V43" stroke="white" stroke-width="2" stroke-linecap="round"/>
<path d="M51.8489 28.968L31.9251 37.8812" stroke="white" stroke-width="2" stroke-linecap="round"/>
<path d="M21 33V48" stroke="white" stroke-width="2" stroke-linecap="round"/>
<path d="M42 33V48.5" stroke="white" stroke-width="2" stroke-linecap="round"/>
<path d="M41 23L52 29" stroke="white" stroke-width="2" stroke-linecap="round"/>
<path d="M31 29L42 33" stroke="white" stroke-width="2" stroke-linecap="round"/>
<path d="M32.4156 27.2856L41.5869 23.1186" stroke="white" stroke-width="2" stroke-linecap="round"/>
<path d="M21 24L11 29" stroke="white" stroke-width="2" stroke-linecap="round"/>
<path d="M31 29V20" stroke="white" stroke-width="2" stroke-linecap="round"/>
<path d="M21 23V14" stroke="white" stroke-width="2" stroke-linecap="round"/>
<path d="M41 23V14" stroke="white" stroke-width="2" stroke-linecap="round"/>
<path d="M21.1726 14.4839L31.4668 18.9405" stroke="white" stroke-width="2" stroke-linecap="round"/>
<path d="M40.5 14.7581L31.4933 18.9406" stroke="white" stroke-width="2" stroke-linecap="round"/>
<path d="M30 9L21 14" stroke="white" stroke-width="2" stroke-linecap="round"/>
<path d="M30 9L41 14" stroke="white" stroke-width="2" stroke-linecap="round"/>
<path d="M5.12878 45L28.1288 57.1616" stroke="white" stroke-width="2"/>
<path d="M36 56.7717L57 46.2208" stroke="white" stroke-width="2"/>
<path d="M79.3747 40.4963V23.0418H86.2611C87.5849 23.0418 88.7128 23.2946 89.6446 23.8003C90.5764 24.3003 91.2866 24.9963 91.7753 25.8884C92.2696 26.7747 92.5168 27.7975 92.5168 28.9566C92.5168 30.1157 92.2668 31.1384 91.7668 32.0247C91.2668 32.9111 90.5423 33.6015 89.5935 34.0958C88.6503 34.5901 87.5082 34.8372 86.1673 34.8372H81.7781V31.8799H85.5707C86.281 31.8799 86.8662 31.7577 87.3264 31.5134C87.7923 31.2634 88.1389 30.9196 88.3662 30.4821C88.5991 30.039 88.7156 29.5304 88.7156 28.9566C88.7156 28.377 88.5991 27.8713 88.3662 27.4395C88.1389 27.002 87.7923 26.664 87.3264 26.4253C86.8605 26.181 86.2696 26.0588 85.5537 26.0588H83.065V40.4963H79.3747ZM100.119 40.752C98.7956 40.752 97.6507 40.4708 96.6848 39.9083C95.7245 39.3401 94.9831 38.5503 94.4603 37.539C93.9376 36.5219 93.6762 35.3429 93.6762 34.002C93.6762 32.6497 93.9376 31.4679 94.4603 30.4566C94.9831 29.4395 95.7245 28.6497 96.6848 28.0872C97.6507 27.5191 98.7956 27.235 100.119 27.235C101.443 27.235 102.585 27.5191 103.546 28.0872C104.511 28.6497 105.256 29.4395 105.779 30.4566C106.301 31.4679 106.563 32.6497 106.563 34.002C106.563 35.3429 106.301 36.5219 105.779 37.539C105.256 38.5503 104.511 39.3401 103.546 39.9083C102.585 40.4708 101.443 40.752 100.119 40.752ZM100.136 37.9395C100.739 37.9395 101.242 37.7691 101.645 37.4282C102.048 37.0816 102.352 36.61 102.557 36.0134C102.767 35.4168 102.872 34.7378 102.872 33.9765C102.872 33.2151 102.767 32.5361 102.557 31.9395C102.352 31.3429 102.048 30.8713 101.645 30.5247C101.242 30.1782 100.739 30.0049 100.136 30.0049C99.5285 30.0049 99.0171 30.1782 98.6024 30.5247C98.1933 30.8713 97.8836 31.3429 97.6734 31.9395C97.4689 32.5361 97.3666 33.2151 97.3666 33.9765C97.3666 34.7378 97.4689 35.4168 97.6734 36.0134C97.8836 36.61 98.1933 37.0816 98.6024 37.4282C99.0171 37.7691 99.5285 37.9395 100.136 37.9395ZM112.124 23.0418V40.4963H108.493V23.0418H112.124ZM116.844 45.4054C116.384 45.4054 115.952 45.3685 115.548 45.2946C115.151 45.2265 114.821 45.1384 114.56 45.0304L115.378 42.3202C115.804 42.4509 116.188 42.5219 116.529 42.5333C116.875 42.5446 117.173 42.4651 117.423 42.2946C117.679 42.1242 117.887 41.8344 118.046 41.4253L118.259 40.8713L113.563 27.4054H117.381L120.091 37.0191H120.227L122.963 27.4054H126.807L121.719 41.9111C121.475 42.6157 121.142 43.2293 120.722 43.752C120.307 44.2804 119.781 44.6867 119.145 44.9708C118.509 45.2605 117.742 45.4054 116.844 45.4054ZM133.417 39.5503V27.4821H136.468V39.5503H133.417ZM128.908 35.0418V31.9907H140.976V35.0418H128.908ZM153.001 23.0418V40.4963H149.31V23.0418H153.001ZM159.169 32.9282V40.4963H155.539V27.4054H158.999V29.7151H159.152C159.442 28.9537 159.928 28.3515 160.61 27.9083C161.292 27.4594 162.118 27.235 163.09 27.235C163.999 27.235 164.792 27.4338 165.468 27.8316C166.144 28.2293 166.669 28.7975 167.044 29.5361C167.419 30.2691 167.607 31.1441 167.607 32.1611V40.4963H163.976V32.8088C163.982 32.0077 163.777 31.3827 163.363 30.9338C162.948 30.4793 162.377 30.252 161.65 30.252C161.161 30.252 160.729 30.3571 160.354 30.5674C159.985 30.7776 159.695 31.0844 159.485 31.4878C159.28 31.8855 159.175 32.3657 159.169 32.9282ZM181.774 27.4054L177.197 40.4963H173.107L168.53 27.4054H172.365L175.084 36.7719H175.22L177.93 27.4054H181.774ZM188.746 40.752C187.4 40.752 186.24 40.4793 185.269 39.9338C184.303 39.3827 183.559 38.6043 183.036 37.5986C182.513 36.5872 182.252 35.3912 182.252 34.0105C182.252 32.664 182.513 31.4821 183.036 30.4651C183.559 29.448 184.294 28.6554 185.243 28.0872C186.198 27.5191 187.317 27.235 188.601 27.235C189.465 27.235 190.269 27.3742 191.013 27.6526C191.763 27.9253 192.417 28.3372 192.973 28.8884C193.536 29.4395 193.973 30.1327 194.286 30.9679C194.598 31.7975 194.755 32.7691 194.755 33.8827V34.8799H183.701V32.6299H191.337C191.337 32.1071 191.223 31.6441 190.996 31.2407C190.769 30.8372 190.454 30.5219 190.05 30.2946C189.652 30.0617 189.189 29.9452 188.661 29.9452C188.11 29.9452 187.621 30.073 187.195 30.3287C186.775 30.5787 186.445 30.9168 186.206 31.3429C185.968 31.7634 185.846 32.2321 185.84 32.7492V34.8884C185.84 35.5361 185.959 36.0958 186.198 36.5674C186.442 37.039 186.786 37.4026 187.229 37.6583C187.672 37.914 188.198 38.0418 188.806 38.0418C189.209 38.0418 189.579 37.985 189.914 37.8713C190.249 37.7577 190.536 37.5872 190.775 37.36C191.013 37.1327 191.195 36.8543 191.32 36.5247L194.678 36.7463C194.508 37.5532 194.158 38.2577 193.63 38.86C193.107 39.4566 192.431 39.9225 191.601 40.2577C190.777 40.5872 189.826 40.752 188.746 40.752ZM200.325 32.9282V40.4963H196.694V27.4054H200.154V29.7151H200.308C200.597 28.9537 201.083 28.3515 201.765 27.9083C202.447 27.4594 203.274 27.235 204.245 27.235C205.154 27.235 205.947 27.4338 206.623 27.8316C207.299 28.2293 207.825 28.7975 208.2 29.5361C208.575 30.2691 208.762 31.1441 208.762 32.1611V40.4963H205.132V32.8088C205.137 32.0077 204.933 31.3827 204.518 30.9338C204.103 30.4793 203.532 30.252 202.805 30.252C202.316 30.252 201.884 30.3571 201.509 30.5674C201.14 30.7776 200.85 31.0844 200.64 31.4878C200.435 31.8855 200.33 32.3657 200.325 32.9282ZM218.157 27.4054V30.1327H210.273V27.4054H218.157ZM212.063 24.2691H215.694V36.4736C215.694 36.8088 215.745 37.0702 215.847 37.2577C215.949 37.4395 216.091 37.5674 216.273 37.6412C216.461 37.7151 216.677 37.752 216.921 37.752C217.091 37.752 217.262 37.7378 217.432 37.7094C217.603 37.6753 217.733 37.6497 217.824 37.6327L218.395 40.3344C218.214 40.3912 217.958 40.4566 217.628 40.5304C217.299 40.61 216.898 40.6583 216.427 40.6753C215.552 40.7094 214.785 40.5929 214.126 40.3259C213.472 40.0588 212.964 39.6441 212.6 39.0816C212.236 38.5191 212.057 37.8088 212.063 36.9509V24.2691ZM225.866 40.752C224.542 40.752 223.397 40.4708 222.431 39.9083C221.471 39.3401 220.73 38.5503 220.207 37.539C219.684 36.5219 219.423 35.3429 219.423 34.002C219.423 32.6497 219.684 31.4679 220.207 30.4566C220.73 29.4395 221.471 28.6497 222.431 28.0872C223.397 27.5191 224.542 27.235 225.866 27.235C227.19 27.235 228.332 27.5191 229.292 28.0872C230.258 28.6497 231.002 29.4395 231.525 30.4566C232.048 31.4679 232.309 32.6497 232.309 34.002C232.309 35.3429 232.048 36.5219 231.525 37.539C231.002 38.5503 230.258 39.3401 229.292 39.9083C228.332 40.4708 227.19 40.752 225.866 40.752ZM225.883 37.9395C226.485 37.9395 226.988 37.7691 227.392 37.4282C227.795 37.0816 228.099 36.61 228.303 36.0134C228.514 35.4168 228.619 34.7378 228.619 33.9765C228.619 33.2151 228.514 32.5361 228.303 31.9395C228.099 31.3429 227.795 30.8713 227.392 30.5247C226.988 30.1782 226.485 30.0049 225.883 30.0049C225.275 30.0049 224.764 30.1782 224.349 30.5247C223.94 30.8713 223.63 31.3429 223.42 31.9395C223.215 32.5361 223.113 33.2151 223.113 33.9765C223.113 34.7378 223.215 35.4168 223.42 36.0134C223.63 36.61 223.94 37.0816 224.349 37.4282C224.764 37.7691 225.275 37.9395 225.883 37.9395ZM234.24 40.4963V27.4054H237.76V29.6895H237.896C238.135 28.877 238.535 28.2634 239.098 27.8486C239.66 27.4282 240.308 27.2179 241.041 27.2179C241.223 27.2179 241.419 27.2293 241.629 27.252C241.839 27.2747 242.024 27.306 242.183 27.3458V30.5674C242.013 30.5162 241.777 30.4708 241.476 30.431C241.175 30.3912 240.899 30.3713 240.649 30.3713C240.115 30.3713 239.638 30.4878 239.217 30.7208C238.802 30.948 238.473 31.2662 238.229 31.6753C237.99 32.0844 237.871 32.556 237.871 33.0901V40.4963H234.24ZM246.27 45.4054C245.81 45.4054 245.378 45.3685 244.975 45.2946C244.577 45.2265 244.247 45.1384 243.986 45.0304L244.804 42.3202C245.23 42.4509 245.614 42.5219 245.955 42.5333C246.301 42.5446 246.6 42.4651 246.85 42.2946C247.105 42.1242 247.313 41.8344 247.472 41.4253L247.685 40.8713L242.989 27.4054H246.807L249.517 37.0191H249.654L252.389 27.4054H256.233L251.145 41.9111C250.901 42.6157 250.568 43.2293 250.148 43.752C249.733 44.2804 249.208 44.6867 248.571 44.9708C247.935 45.2605 247.168 45.4054 246.27 45.4054Z" fill="white"/>
</svg>
