<svg width="115" height="146" viewBox="0 0 115 146" fill="none" xmlns="http://www.w3.org/2000/svg">
<rect width="115" height="146" rx="4" fill="#AAE5AF"/>
<path d="M11.8087 20V9.81818H15.2491C16.0478 9.81818 16.7008 9.96236 17.2079 10.2507C17.7183 10.5357 18.0961 10.9219 18.3414 11.4091C18.5867 11.8963 18.7093 12.4399 18.7093 13.0398C18.7093 13.6397 18.5867 14.1849 18.3414 14.6754C18.0995 15.166 17.7249 15.5571 17.2178 15.8487C16.7107 16.1371 16.0611 16.2812 15.269 16.2812H12.8031V15.1875H15.2292C15.7761 15.1875 16.2152 15.093 16.5467 14.9041C16.8781 14.7152 17.1184 14.46 17.2675 14.1385C17.42 13.8137 17.4962 13.4474 17.4962 13.0398C17.4962 12.6321 17.42 12.2675 17.2675 11.946C17.1184 11.6245 16.8764 11.3726 16.5417 11.1903C16.2069 11.0047 15.7628 10.9119 15.2093 10.9119H13.0417V20H11.8087ZM23.226 20.1591C22.4902 20.1591 21.8555 19.9967 21.3219 19.6719C20.7916 19.3438 20.3823 18.8864 20.0939 18.2997C19.8089 17.7098 19.6664 17.0237 19.6664 16.2415C19.6664 15.4593 19.8089 14.7699 20.0939 14.1733C20.3823 13.5734 20.7833 13.1061 21.2971 12.7713C21.8141 12.4332 22.4173 12.2642 23.1067 12.2642C23.5044 12.2642 23.8972 12.3305 24.285 12.4631C24.6728 12.5956 25.0258 12.8111 25.3439 13.1094C25.6621 13.4044 25.9157 13.7955 26.1046 14.2827C26.2935 14.7699 26.388 15.3698 26.388 16.0824V16.5795H20.5016V15.5653H25.1948C25.1948 15.1345 25.1086 14.75 24.9363 14.4119C24.7672 14.0739 24.5253 13.8071 24.2104 13.6115C23.8989 13.416 23.531 13.3182 23.1067 13.3182C22.6394 13.3182 22.235 13.4342 21.8937 13.6662C21.5556 13.8949 21.2954 14.1932 21.1131 14.5611C20.9308 14.929 20.8397 15.3234 20.8397 15.7443V16.4205C20.8397 16.9972 20.9391 17.486 21.138 17.8871C21.3401 18.2848 21.6202 18.5881 21.9782 18.7969C22.3361 19.0024 22.7521 19.1051 23.226 19.1051C23.5343 19.1051 23.8127 19.062 24.0613 18.9759C24.3132 18.8864 24.5303 18.7538 24.7125 18.5781C24.8948 18.3991 25.0357 18.1771 25.1351 17.9119L26.2687 18.2301C26.1493 18.6146 25.9488 18.9527 25.6671 19.2443C25.3854 19.5327 25.0374 19.758 24.6231 19.9205C24.2088 20.0795 23.7431 20.1591 23.226 20.1591ZM27.7428 20V12.3636H28.8763V13.517H28.9558C29.095 13.1392 29.3469 12.8326 29.7115 12.5973C30.0761 12.362 30.4871 12.2443 30.9445 12.2443C31.0306 12.2443 31.1384 12.246 31.2676 12.2493C31.3969 12.2526 31.4947 12.2576 31.561 12.2642V13.4574C31.5212 13.4474 31.43 13.4325 31.2875 13.4126C31.1483 13.3894 31.0008 13.3778 30.845 13.3778C30.4738 13.3778 30.1424 13.4557 29.8507 13.6115C29.5624 13.764 29.3337 13.9761 29.1646 14.2479C28.9989 14.5163 28.9161 14.8229 28.9161 15.1676V20H27.7428ZM36.4008 12.3636V13.358H32.2844V12.3636H36.4008ZM33.5173 20V11.3097C33.5173 10.8722 33.6201 10.5076 33.8256 10.2159C34.031 9.92424 34.2979 9.70549 34.626 9.55966C34.9541 9.41383 35.3005 9.34091 35.665 9.34091C35.9534 9.34091 36.1887 9.36411 36.371 9.41051C36.5533 9.45691 36.6892 9.5 36.7787 9.53977L36.4406 10.554C36.381 10.5341 36.2981 10.5092 36.192 10.4794C36.0893 10.4496 35.9534 10.4347 35.7844 10.4347C35.3966 10.4347 35.1165 10.5324 34.9442 10.728C34.7751 10.9235 34.6906 11.2102 34.6906 11.5881V20H33.5173ZM40.403 20.1591C39.7136 20.1591 39.1087 19.995 38.5884 19.6669C38.0713 19.3388 37.667 18.8797 37.3753 18.2898C37.087 17.6998 36.9428 17.0104 36.9428 16.2216C36.9428 15.4261 37.087 14.7318 37.3753 14.1385C37.667 13.5452 38.0713 13.0845 38.5884 12.7564C39.1087 12.4283 39.7136 12.2642 40.403 12.2642C41.0924 12.2642 41.6956 12.4283 42.2127 12.7564C42.733 13.0845 43.1374 13.5452 43.4257 14.1385C43.7174 14.7318 43.8632 15.4261 43.8632 16.2216C43.8632 17.0104 43.7174 17.6998 43.4257 18.2898C43.1374 18.8797 42.733 19.3388 42.2127 19.6669C41.6956 19.995 41.0924 20.1591 40.403 20.1591ZM40.403 19.1051C40.9267 19.1051 41.3576 18.9709 41.6956 18.7024C42.0337 18.4339 42.2839 18.081 42.4463 17.6435C42.6087 17.206 42.6899 16.732 42.6899 16.2216C42.6899 15.7112 42.6087 15.2356 42.4463 14.7947C42.2839 14.3539 42.0337 13.9976 41.6956 13.7259C41.3576 13.4541 40.9267 13.3182 40.403 13.3182C39.8793 13.3182 39.4485 13.4541 39.1104 13.7259C38.7723 13.9976 38.5221 14.3539 38.3597 14.7947C38.1973 15.2356 38.1161 15.7112 38.1161 16.2216C38.1161 16.732 38.1973 17.206 38.3597 17.6435C38.5221 18.081 38.7723 18.4339 39.1104 18.7024C39.4485 18.9709 39.8793 19.1051 40.403 19.1051ZM45.2243 20V12.3636H46.3578V13.517H46.4373C46.5765 13.1392 46.8284 12.8326 47.193 12.5973C47.5576 12.362 47.9686 12.2443 48.426 12.2443C48.5121 12.2443 48.6199 12.246 48.7491 12.2493C48.8784 12.2526 48.9761 12.2576 49.0424 12.2642V13.4574C49.0027 13.4474 48.9115 13.4325 48.769 13.4126C48.6298 13.3894 48.4823 13.3778 48.3265 13.3778C47.9553 13.3778 47.6239 13.4557 47.3322 13.6115C47.0439 13.764 46.8152 13.9761 46.6461 14.2479C46.4804 14.5163 46.3975 14.8229 46.3975 15.1676V20H45.2243ZM50.0032 20V12.3636H51.1368V13.5568H51.2362C51.3953 13.1491 51.6521 12.8326 52.0068 12.6072C52.3614 12.3786 52.7873 12.2642 53.2845 12.2642C53.7883 12.2642 54.2075 12.3786 54.5423 12.6072C54.8804 12.8326 55.1439 13.1491 55.3328 13.5568H55.4123C55.6079 13.1624 55.9012 12.8492 56.2923 12.6172C56.6834 12.3819 57.1524 12.2642 57.6993 12.2642C58.382 12.2642 58.9405 12.478 59.3747 12.9055C59.8089 13.3298 60.026 13.991 60.026 14.8892V20H58.8527V14.8892C58.8527 14.3258 58.6986 13.9231 58.3903 13.6811C58.0821 13.4392 57.7191 13.3182 57.3015 13.3182C56.7646 13.3182 56.3486 13.4806 56.0537 13.8054C55.7587 14.1269 55.6112 14.5346 55.6112 15.0284V20H54.418V14.7699C54.418 14.3357 54.2771 13.986 53.9954 13.7209C53.7137 13.4524 53.3508 13.3182 52.9066 13.3182C52.6017 13.3182 52.3167 13.3994 52.0515 13.5618C51.7897 13.7242 51.5776 13.9496 51.4152 14.2379C51.2561 14.523 51.1765 14.8527 51.1765 15.2273V20H50.0032ZM63.9884 20.179C63.5045 20.179 63.0653 20.0878 62.6709 19.9055C62.2765 19.7199 61.9633 19.4531 61.7313 19.1051C61.4993 18.7538 61.3833 18.3295 61.3833 17.8324C61.3833 17.3949 61.4694 17.0402 61.6418 16.7685C61.8141 16.4934 62.0445 16.2779 62.3328 16.1222C62.6212 15.9664 62.9394 15.8504 63.2874 15.7741C63.6387 15.6946 63.9917 15.6316 64.3463 15.5852C64.8103 15.5256 65.1865 15.4808 65.4749 15.451C65.7665 15.4179 65.9787 15.3632 66.1112 15.2869C66.2471 15.2107 66.3151 15.0781 66.3151 14.8892V14.8494C66.3151 14.3589 66.1808 13.9777 65.9124 13.706C65.6472 13.4342 65.2445 13.2983 64.7043 13.2983C64.1441 13.2983 63.705 13.4209 63.3868 13.6662C63.0686 13.9115 62.8449 14.1733 62.7156 14.4517L61.602 14.054C61.8009 13.59 62.066 13.2287 62.3975 12.9702C62.7322 12.7083 63.0968 12.526 63.4912 12.4233C63.8889 12.3172 64.28 12.2642 64.6645 12.2642C64.9098 12.2642 65.1915 12.294 65.5097 12.3537C65.8312 12.41 66.1411 12.5277 66.4394 12.7067C66.741 12.8857 66.9912 13.1558 67.1901 13.517C67.3889 13.8783 67.4884 14.3622 67.4884 14.9688V20H66.3151V18.9659H66.2554C66.1759 19.1316 66.0433 19.3089 65.8577 19.4979C65.6721 19.6868 65.4252 19.8475 65.1169 19.9801C64.8087 20.1127 64.4325 20.179 63.9884 20.179ZM64.1673 19.125C64.6314 19.125 65.0225 19.0339 65.3406 18.8516C65.6621 18.6693 65.9041 18.4339 66.0665 18.1456C66.2322 17.8572 66.3151 17.554 66.3151 17.2358V16.1619C66.2654 16.2216 66.156 16.2763 65.9869 16.326C65.8212 16.3724 65.629 16.4138 65.4102 16.4503C65.1948 16.4834 64.9843 16.5133 64.7789 16.5398C64.5767 16.563 64.4126 16.5829 64.2867 16.5994C63.9817 16.6392 63.6967 16.7038 63.4316 16.7933C63.1697 16.8795 62.9576 17.0104 62.7952 17.1861C62.6361 17.3584 62.5566 17.5937 62.5566 17.892C62.5566 18.2997 62.7074 18.608 63.009 18.8168C63.3139 19.0223 63.7 19.125 64.1673 19.125ZM70.3732 15.4062V20H69.1999V12.3636H70.3334V13.5568H70.4328C70.6118 13.169 70.8836 12.8575 71.2482 12.6222C71.6128 12.3835 72.0834 12.2642 72.6601 12.2642C73.1772 12.2642 73.6296 12.3703 74.0174 12.5824C74.4051 12.7912 74.7067 13.1094 74.9222 13.5369C75.1376 13.9612 75.2453 14.4981 75.2453 15.1477V20H74.072V15.2273C74.072 14.6274 73.9163 14.16 73.6047 13.8253C73.2932 13.4872 72.8656 13.3182 72.322 13.3182C71.9475 13.3182 71.6128 13.3994 71.3178 13.5618C71.0261 13.7242 70.7958 13.9612 70.6267 14.2727C70.4577 14.5843 70.3732 14.9621 70.3732 15.4062ZM80.0616 20.1591C79.3457 20.1591 78.7292 19.9901 78.2122 19.652C77.6951 19.3139 77.2974 18.8482 77.019 18.255C76.7406 17.6617 76.6014 16.9839 76.6014 16.2216C76.6014 15.446 76.7439 14.7616 77.0289 14.1683C77.3173 13.5717 77.7183 13.1061 78.2321 12.7713C78.7491 12.4332 79.3523 12.2642 80.0417 12.2642C80.5786 12.2642 81.0626 12.3636 81.4934 12.5625C81.9243 12.7614 82.2773 13.0398 82.5524 13.3977C82.8275 13.7557 82.9982 14.1733 83.0644 14.6506H81.8911C81.8017 14.3026 81.6028 13.9943 81.2946 13.7259C80.9896 13.4541 80.5786 13.3182 80.0616 13.3182C79.6042 13.3182 79.2032 13.4375 78.8585 13.6761C78.5171 13.9115 78.2503 14.2446 78.0581 14.6754C77.8691 15.103 77.7747 15.6051 77.7747 16.1818C77.7747 16.7718 77.8675 17.2855 78.0531 17.723C78.242 18.1605 78.5072 18.5002 78.8485 18.7422C79.1932 18.9841 79.5976 19.1051 80.0616 19.1051C80.3665 19.1051 80.6433 19.0521 80.8919 18.946C81.1404 18.84 81.3509 18.6875 81.5233 18.4886C81.6956 18.2898 81.8182 18.0511 81.8911 17.7727H83.0644C82.9982 18.2235 82.8341 18.6295 82.5723 18.9908C82.3137 19.3487 81.9707 19.6338 81.5431 19.8459C81.1189 20.0547 80.6251 20.1591 80.0616 20.1591ZM87.5513 20.1591C86.8156 20.1591 86.1808 19.9967 85.6472 19.6719C85.1169 19.3438 84.7076 18.8864 84.4192 18.2997C84.1342 17.7098 83.9917 17.0237 83.9917 16.2415C83.9917 15.4593 84.1342 14.7699 84.4192 14.1733C84.7076 13.5734 85.1086 13.1061 85.6224 12.7713C86.1394 12.4332 86.7426 12.2642 87.432 12.2642C87.8298 12.2642 88.2225 12.3305 88.6103 12.4631C88.9981 12.5956 89.3511 12.8111 89.6692 13.1094C89.9874 13.4044 90.241 13.7955 90.4299 14.2827C90.6188 14.7699 90.7133 15.3698 90.7133 16.0824V16.5795H84.8269V15.5653H89.5201C89.5201 15.1345 89.4339 14.75 89.2616 14.4119C89.0925 14.0739 88.8506 13.8071 88.5357 13.6115C88.2242 13.416 87.8563 13.3182 87.432 13.3182C86.9647 13.3182 86.5603 13.4342 86.219 13.6662C85.8809 13.8949 85.6207 14.1932 85.4384 14.5611C85.2561 14.929 85.165 15.3234 85.165 15.7443V16.4205C85.165 16.9972 85.2644 17.486 85.4633 17.8871C85.6655 18.2848 85.9455 18.5881 86.3035 18.7969C86.6614 19.0024 87.0774 19.1051 87.5513 19.1051C87.8596 19.1051 88.138 19.062 88.3866 18.9759C88.6385 18.8864 88.8556 18.7538 89.0379 18.5781C89.2201 18.3991 89.361 18.1771 89.4604 17.9119L90.594 18.2301C90.4746 18.6146 90.2741 18.9527 89.9924 19.2443C89.7107 19.5327 89.3627 19.758 88.9484 19.9205C88.5341 20.0795 88.0684 20.1591 87.5513 20.1591Z" fill="white"/>
<line x1="11.7495" y1="76.5673" x2="30.7495" y2="65.5673" stroke="#02542D"/>
<line x1="30.307" y1="65.6053" x2="48.307" y2="79.6053" stroke="#02542D"/>
<line x1="47.623" y1="79.6716" x2="74.623" y2="48.6716" stroke="#02542D"/>
<path d="M74 48.5L94.37 70.6637" stroke="#02542D"/>
<line x1="17.584" y1="94.7226" x2="27.584" y2="79.7226" stroke="white"/>
<path d="M27.5001 80L47.7229 64.584" stroke="white"/>
<path d="M47.5 65L74.9816 63.5003" stroke="white"/>
<line x1="74.6352" y1="63.658" x2="89.6352" y2="47.658" stroke="white"/>
</svg>
