<svg width="143" height="55" viewBox="0 0 143 55" fill="none" xmlns="http://www.w3.org/2000/svg">
<path d="M6 0.5H137C140.038 0.5 142.5 2.96243 142.5 6V49C142.5 52.0376 140.038 54.5 137 54.5H6C2.96243 54.5 0.5 52.0376 0.5 49V6C0.5 2.96243 2.96243 0.5 6 0.5Z" stroke="white"/>
<path d="M34.8648 25V10.4545H40.6034C41.7019 10.4545 42.6394 10.651 43.4159 11.044C44.1971 11.4323 44.7914 11.9839 45.1986 12.6989C45.6105 13.4091 45.8165 14.2448 45.8165 15.206C45.8165 16.1719 45.6081 17.0028 45.1915 17.6989C44.7748 18.3902 44.1711 18.9205 43.3804 19.2898C42.5944 19.6591 41.6427 19.8438 40.5253 19.8438H36.6829V17.3722H40.0281C40.6152 17.3722 41.1029 17.2917 41.4912 17.1307C41.8794 16.9697 42.1683 16.7282 42.3577 16.4062C42.5518 16.0843 42.6488 15.6842 42.6488 15.206C42.6488 14.723 42.5518 14.3158 42.3577 13.9844C42.1683 13.6529 41.8771 13.402 41.4841 13.2315C41.0958 13.0563 40.6058 12.9688 40.0139 12.9688H37.94V25H34.8648ZM42.7199 18.3807L46.3349 25H42.94L39.4031 18.3807H42.7199ZM52.2987 25.2131C51.1766 25.2131 50.2107 24.9858 49.401 24.5312C48.5961 24.072 47.9758 23.4233 47.5402 22.5852C47.1046 21.7424 46.8868 20.7457 46.8868 19.5952C46.8868 18.473 47.1046 17.4882 47.5402 16.6406C47.9758 15.7931 48.589 15.1326 49.3797 14.6591C50.1752 14.1856 51.1079 13.9489 52.178 13.9489C52.8977 13.9489 53.5677 14.0649 54.1879 14.2969C54.8129 14.5241 55.3575 14.8674 55.8215 15.3267C56.2902 15.786 56.6548 16.3636 56.9152 17.0597C57.1756 17.7509 57.3058 18.5606 57.3058 19.4886V20.3196H48.0942V18.4446H54.4578C54.4578 18.009 54.3631 17.6231 54.1737 17.2869C53.9843 16.9508 53.7216 16.688 53.3854 16.4986C53.054 16.3045 52.6681 16.2074 52.2277 16.2074C51.7684 16.2074 51.3612 16.3139 51.0061 16.527C50.6558 16.7353 50.3811 17.017 50.1823 17.3722C49.9834 17.7225 49.8816 18.1132 49.8769 18.544V20.3267C49.8769 20.8665 49.9763 21.3329 50.1752 21.7259C50.3788 22.1188 50.6652 22.4219 51.0345 22.6349C51.4039 22.848 51.8418 22.9545 52.3485 22.9545C52.6846 22.9545 52.9924 22.9072 53.2718 22.8125C53.5511 22.7178 53.7902 22.5758 53.9891 22.3864C54.1879 22.197 54.3395 21.965 54.4436 21.6903L57.2419 21.875C57.0999 22.5473 56.8087 23.1345 56.3683 23.6364C55.9327 24.1335 55.3693 24.5218 54.678 24.8011C53.9915 25.0758 53.1984 25.2131 52.2987 25.2131ZM58.8503 25V14.0909H61.7338V16.0156H61.8616C62.0889 15.3764 62.4677 14.8722 62.998 14.5028C63.5283 14.1335 64.1628 13.9489 64.9014 13.9489C65.6495 13.9489 66.2864 14.1359 66.8119 14.5099C67.3375 14.8793 67.6879 15.3812 67.8631 16.0156H67.9767C68.1992 15.3906 68.6017 14.8911 69.1841 14.517C69.7712 14.1383 70.4649 13.9489 71.2651 13.9489C72.283 13.9489 73.1093 14.2732 73.7437 14.9219C74.3829 15.5658 74.7026 16.4796 74.7026 17.6634V25H71.6841V18.2599C71.6841 17.6539 71.5231 17.1993 71.2011 16.8963C70.8792 16.5933 70.4767 16.4418 69.9937 16.4418C69.4445 16.4418 69.016 16.617 68.7082 16.9673C68.4005 17.313 68.2466 17.7699 68.2466 18.3381V25H65.3133V18.196C65.3133 17.661 65.1595 17.2348 64.8517 16.9176C64.5487 16.6004 64.1486 16.4418 63.6514 16.4418C63.3152 16.4418 63.0122 16.527 62.7423 16.6974C62.4772 16.8632 62.2665 17.0975 62.1102 17.4006C61.954 17.6989 61.8758 18.0492 61.8758 18.4517V25H58.8503ZM81.5914 25.2131C80.4882 25.2131 79.5342 24.9787 78.7292 24.5099C77.929 24.0365 77.3111 23.3783 76.8755 22.5355C76.4399 21.688 76.2221 20.7055 76.2221 19.5881C76.2221 18.4612 76.4399 17.4763 76.8755 16.6335C77.3111 15.786 77.929 15.1278 78.7292 14.6591C79.5342 14.1856 80.4882 13.9489 81.5914 13.9489C82.6947 13.9489 83.6464 14.1856 84.4466 14.6591C85.2515 15.1278 85.8717 15.786 86.3074 16.6335C86.743 17.4763 86.9608 18.4612 86.9608 19.5881C86.9608 20.7055 86.743 21.688 86.3074 22.5355C85.8717 23.3783 85.2515 24.0365 84.4466 24.5099C83.6464 24.9787 82.6947 25.2131 81.5914 25.2131ZM81.6056 22.8693C82.1075 22.8693 82.5266 22.7273 82.8627 22.4432C83.1989 22.1544 83.4522 21.7614 83.6227 21.2642C83.7979 20.767 83.8855 20.2012 83.8855 19.5668C83.8855 18.9323 83.7979 18.3665 83.6227 17.8693C83.4522 17.3722 83.1989 16.9792 82.8627 16.6903C82.5266 16.4015 82.1075 16.2571 81.6056 16.2571C81.099 16.2571 80.6729 16.4015 80.3272 16.6903C79.9863 16.9792 79.7283 17.3722 79.5531 17.8693C79.3826 18.3665 79.2974 18.9323 79.2974 19.5668C79.2974 20.2012 79.3826 20.767 79.5531 21.2642C79.7283 21.7614 79.9863 22.1544 80.3272 22.4432C80.6729 22.7273 81.099 22.8693 81.6056 22.8693ZM98.317 14.0909L94.5031 25H91.094L87.28 14.0909H90.4761L92.7417 21.8963H92.8553L95.1139 14.0909H98.317ZM104.055 25.2131C102.933 25.2131 101.967 24.9858 101.158 24.5312C100.353 24.072 99.7324 23.4233 99.2968 22.5852C98.8612 21.7424 98.6434 20.7457 98.6434 19.5952C98.6434 18.473 98.8612 17.4882 99.2968 16.6406C99.7324 15.7931 100.346 15.1326 101.136 14.6591C101.932 14.1856 102.864 13.9489 103.935 13.9489C104.654 13.9489 105.324 14.0649 105.945 14.2969C106.57 14.5241 107.114 14.8674 107.578 15.3267C108.047 15.786 108.411 16.3636 108.672 17.0597C108.932 17.7509 109.062 18.5606 109.062 19.4886V20.3196H99.8508V18.4446H106.214C106.214 18.009 106.12 17.6231 105.93 17.2869C105.741 16.9508 105.478 16.688 105.142 16.4986C104.811 16.3045 104.425 16.2074 103.984 16.2074C103.525 16.2074 103.118 16.3139 102.763 16.527C102.412 16.7353 102.138 17.017 101.939 17.3722C101.74 17.7225 101.638 18.1132 101.633 18.544V20.3267C101.633 20.8665 101.733 21.3329 101.932 21.7259C102.135 22.1188 102.422 22.4219 102.791 22.6349C103.16 22.848 103.598 22.9545 104.105 22.9545C104.441 22.9545 104.749 22.9072 105.028 22.8125C105.308 22.7178 105.547 22.5758 105.746 22.3864C105.945 22.197 106.096 21.965 106.2 21.6903L108.998 21.875C108.856 22.5473 108.565 23.1345 108.125 23.6364C107.689 24.1335 107.126 24.5218 106.435 24.8011C105.748 25.0758 104.955 25.2131 104.055 25.2131ZM35.2749 45V30.4545H41.0135C42.1168 30.4545 43.0566 30.6652 43.8331 31.0866C44.6097 31.5033 45.2015 32.0833 45.6087 32.8267C46.0206 33.5653 46.2266 34.4176 46.2266 35.3835C46.2266 36.3494 46.0183 37.2017 45.6016 37.9403C45.1849 38.679 44.5813 39.2543 43.7905 39.6662C43.0045 40.0781 42.0528 40.2841 40.9354 40.2841H37.2777V37.8196H40.4383C41.0301 37.8196 41.5178 37.7178 41.9013 37.5142C42.2896 37.3059 42.5784 37.0194 42.7678 36.6548C42.9619 36.2855 43.059 35.8617 43.059 35.3835C43.059 34.9006 42.9619 34.4792 42.7678 34.1193C42.5784 33.7547 42.2896 33.473 41.9013 33.2741C41.5131 33.0705 41.0206 32.9688 40.4241 32.9688H38.3502V45H35.2749ZM47.7373 45V34.0909H50.6705V35.9943H50.7842C50.983 35.3172 51.3169 34.8059 51.7856 34.4602C52.2544 34.1098 52.7941 33.9347 53.4049 33.9347C53.5564 33.9347 53.7198 33.9441 53.895 33.9631C54.0702 33.982 54.2241 34.008 54.3566 34.0412V36.7259C54.2146 36.6832 54.0181 36.6454 53.7671 36.6122C53.5162 36.5791 53.2866 36.5625 53.0782 36.5625C52.6331 36.5625 52.2354 36.6596 51.885 36.8537C51.5394 37.0431 51.2648 37.3082 51.0612 37.6491C50.8623 37.9901 50.7629 38.383 50.7629 38.8281V45H47.7373ZM59.9121 45.2131C58.8088 45.2131 57.8548 44.9787 57.0499 44.5099C56.2497 44.0365 55.6318 43.3783 55.1962 42.5355C54.7606 41.688 54.5427 40.7055 54.5427 39.5881C54.5427 38.4612 54.7606 37.4763 55.1962 36.6335C55.6318 35.786 56.2497 35.1278 57.0499 34.6591C57.8548 34.1856 58.8088 33.9489 59.9121 33.9489C61.0153 33.9489 61.967 34.1856 62.7672 34.6591C63.5721 35.1278 64.1924 35.786 64.628 36.6335C65.0636 37.4763 65.2814 38.4612 65.2814 39.5881C65.2814 40.7055 65.0636 41.688 64.628 42.5355C64.1924 43.3783 63.5721 44.0365 62.7672 44.5099C61.967 44.9787 61.0153 45.2131 59.9121 45.2131ZM59.9263 42.8693C60.4282 42.8693 60.8472 42.7273 61.1834 42.4432C61.5195 42.1544 61.7729 41.7614 61.9433 41.2642C62.1185 40.767 62.2061 40.2012 62.2061 39.5668C62.2061 38.9323 62.1185 38.3665 61.9433 37.8693C61.7729 37.3722 61.5195 36.9792 61.1834 36.6903C60.8472 36.4015 60.4282 36.2571 59.9263 36.2571C59.4196 36.2571 58.9935 36.4015 58.6479 36.6903C58.307 36.9792 58.0489 37.3722 57.8737 37.8693C57.7033 38.3665 57.618 38.9323 57.618 39.5668C57.618 40.2012 57.7033 40.767 57.8737 41.2642C58.0489 41.7614 58.307 42.1544 58.6479 42.4432C58.9935 42.7273 59.4196 42.8693 59.9263 42.8693ZM70.8386 45.1776C70.01 45.1776 69.2595 44.9645 68.5872 44.5384C67.9196 44.1075 67.3893 43.4754 66.9963 42.642C66.608 41.804 66.4139 40.7765 66.4139 39.5597C66.4139 38.3097 66.6151 37.2704 67.0176 36.4418C67.42 35.6084 67.9551 34.9858 68.6227 34.5739C69.295 34.1572 70.0313 33.9489 70.8315 33.9489C71.4423 33.9489 71.9513 34.053 72.3585 34.2614C72.7704 34.465 73.1019 34.7206 73.3528 35.0284C73.6085 35.3314 73.8026 35.6297 73.9352 35.9233H74.0275V30.4545H77.046V45H74.063V43.2528H73.9352C73.7931 43.5559 73.5919 43.8565 73.3315 44.1548C73.0758 44.4484 72.742 44.6922 72.3301 44.8864C71.9229 45.0805 71.4257 45.1776 70.8386 45.1776ZM71.7974 42.7699C72.2851 42.7699 72.697 42.6373 73.0332 42.3722C73.3741 42.1023 73.6345 41.7259 73.8145 41.2429C73.9991 40.7599 74.0914 40.1941 74.0914 39.5455C74.0914 38.8968 74.0015 38.3333 73.8216 37.8551C73.6416 37.3769 73.3812 37.0076 73.0403 36.7472C72.6994 36.4867 72.2851 36.3565 71.7974 36.3565C71.3002 36.3565 70.8812 36.4915 70.5403 36.7614C70.1994 37.0312 69.9413 37.4053 69.7662 37.8835C69.591 38.3617 69.5034 38.9157 69.5034 39.5455C69.5034 40.1799 69.591 40.741 69.7662 41.2287C69.9461 41.7116 70.2041 42.0904 70.5403 42.3651C70.8812 42.6349 71.3002 42.7699 71.7974 42.7699ZM86.0993 40.3551V34.0909H89.1249V45H86.22V43.0185H86.1064C85.8602 43.6577 85.4506 44.1714 84.8777 44.5597C84.3095 44.9479 83.6159 45.142 82.7967 45.142C82.0676 45.142 81.426 44.9763 80.872 44.6449C80.318 44.3134 79.8848 43.8423 79.5723 43.2315C79.2645 42.6207 79.1083 41.8892 79.1036 41.0369V34.0909H82.1291V40.4972C82.1339 41.1411 82.3067 41.6501 82.6476 42.0241C82.9885 42.3982 83.4454 42.5852 84.0183 42.5852C84.3829 42.5852 84.7238 42.5024 85.0411 42.3366C85.3583 42.1662 85.614 41.9152 85.8081 41.5838C86.007 41.2524 86.104 40.8428 86.0993 40.3551ZM96.0439 45.2131C94.9265 45.2131 93.9653 44.9763 93.1604 44.5028C92.3602 44.0246 91.7447 43.3617 91.3138 42.5142C90.8877 41.6667 90.6746 40.6913 90.6746 39.5881C90.6746 38.4706 90.8901 37.4905 91.3209 36.6477C91.7565 35.8002 92.3744 35.1397 93.1746 34.6662C93.9748 34.188 94.9265 33.9489 96.0297 33.9489C96.9814 33.9489 97.8148 34.1217 98.5297 34.4673C99.2447 34.813 99.8105 35.2983 100.227 35.9233C100.644 36.5483 100.873 37.2822 100.916 38.125H98.061C97.9805 37.5805 97.7674 37.1425 97.4218 36.8111C97.0809 36.4749 96.6334 36.3068 96.0795 36.3068C95.6107 36.3068 95.2011 36.4347 94.8508 36.6903C94.5051 36.9413 94.2352 37.3082 94.0411 37.7912C93.847 38.2741 93.7499 38.8589 93.7499 39.5455C93.7499 40.2415 93.8446 40.8333 94.034 41.321C94.2281 41.8087 94.5004 42.1804 94.8508 42.4361C95.2011 42.6918 95.6107 42.8196 96.0795 42.8196C96.4251 42.8196 96.7352 42.7486 97.0099 42.6065C97.2892 42.4645 97.5188 42.2585 97.6988 41.9886C97.8834 41.714 98.0042 41.3849 98.061 41.0014H100.916C100.869 41.8348 100.641 42.5687 100.234 43.2031C99.8318 43.8329 99.2755 44.3253 98.5652 44.6804C97.855 45.0355 97.0146 45.2131 96.0439 45.2131ZM108.226 34.0909V36.3636H101.656V34.0909H108.226ZM103.148 31.4773H106.173V41.6477C106.173 41.9271 106.216 42.1449 106.301 42.3011C106.386 42.4527 106.505 42.5592 106.656 42.6207C106.812 42.6823 106.992 42.7131 107.196 42.7131C107.338 42.7131 107.48 42.7012 107.622 42.6776C107.764 42.6491 107.873 42.6278 107.949 42.6136L108.425 44.8651C108.273 44.9124 108.06 44.9669 107.785 45.0284C107.511 45.0947 107.177 45.1349 106.784 45.1491C106.055 45.1776 105.416 45.0805 104.866 44.858C104.322 44.6354 103.898 44.2898 103.595 43.821C103.292 43.3523 103.143 42.7604 103.148 42.0455V31.4773Z" fill="white"/>
</svg>
