<svg width="112" height="43" viewBox="0 0 112 43" fill="none" xmlns="http://www.w3.org/2000/svg">
<path d="M6 0.5H106C109.038 0.5 111.5 2.96243 111.5 6V37C111.5 40.0376 109.038 42.5 106 42.5H6C2.96243 42.5 0.5 40.0376 0.5 37V6L0.506836 5.7168C0.654222 2.81084 3.05741 0.5 6 0.5Z" stroke="white"/>
<path d="M29.7554 18.1378C29.6986 17.5649 29.4547 17.1198 29.0238 16.8026C28.593 16.4853 28.0082 16.3267 27.2696 16.3267C26.7677 16.3267 26.3439 16.3977 25.9983 16.5398C25.6526 16.6771 25.3875 16.8688 25.2028 17.1151C25.0229 17.3613 24.9329 17.6406 24.9329 17.9531C24.9235 18.2135 24.9779 18.4408 25.0963 18.6349C25.2194 18.8291 25.3875 18.9972 25.6005 19.1392C25.8136 19.2765 26.0598 19.3973 26.3392 19.5014C26.6185 19.6009 26.9168 19.6861 27.2341 19.7571L28.5409 20.0696C29.1754 20.2116 29.7577 20.401 30.288 20.6378C30.8184 20.8745 31.2776 21.1657 31.6659 21.5114C32.0541 21.857 32.3548 22.2642 32.5679 22.733C32.7857 23.2017 32.8969 23.7391 32.9017 24.3452C32.8969 25.2353 32.6697 26.0071 32.2199 26.6605C31.7748 27.3092 31.1309 27.8134 30.288 28.1733C29.45 28.5284 28.4391 28.706 27.2554 28.706C26.0811 28.706 25.0584 28.526 24.1872 28.1662C23.3207 27.8063 22.6436 27.2737 22.1559 26.5682C21.673 25.858 21.4197 24.9796 21.396 23.9332H24.3719C24.405 24.4209 24.5447 24.8281 24.7909 25.1548C25.0418 25.4768 25.3756 25.7206 25.7923 25.8864C26.2137 26.0473 26.6896 26.1278 27.2199 26.1278C27.7407 26.1278 28.1929 26.0521 28.5764 25.9006C28.9647 25.7491 29.2653 25.5384 29.4784 25.2685C29.6915 24.9986 29.798 24.6884 29.798 24.3381C29.798 24.0114 29.7009 23.7367 29.5068 23.5142C29.3174 23.2917 29.038 23.1023 28.6687 22.946C28.3041 22.7898 27.8567 22.6477 27.3264 22.5199L25.7426 22.1222C24.5163 21.8239 23.548 21.3575 22.8378 20.723C22.1275 20.0885 21.7748 19.2339 21.7795 18.1591C21.7748 17.2784 22.0092 16.509 22.4827 15.8509C22.9609 15.1927 23.6166 14.679 24.45 14.3097C25.2833 13.9403 26.2303 13.7557 27.2909 13.7557C28.3704 13.7557 29.3127 13.9403 30.1176 14.3097C30.9273 14.679 31.557 15.1927 32.0068 15.8509C32.4566 16.509 32.6886 17.2713 32.7028 18.1378H29.7554ZM34.4834 28.5V17.5909H37.509V28.5H34.4834ZM36.0033 16.1847C35.5535 16.1847 35.1676 16.0355 34.8456 15.7372C34.5284 15.4342 34.3698 15.072 34.3698 14.6506C34.3698 14.2339 34.5284 13.8764 34.8456 13.5781C35.1676 13.2751 35.5535 13.1236 36.0033 13.1236C36.4531 13.1236 36.8366 13.2751 37.1539 13.5781C37.4758 13.8764 37.6368 14.2339 37.6368 14.6506C37.6368 15.072 37.4758 15.4342 37.1539 15.7372C36.8366 16.0355 36.4531 16.1847 36.0033 16.1847ZM44.4174 32.8182C43.4373 32.8182 42.5968 32.6832 41.8961 32.4134C41.2001 32.1482 40.6461 31.786 40.2342 31.3267C39.8222 30.8674 39.5547 30.3513 39.4316 29.7784L42.2299 29.402C42.3151 29.6198 42.4501 29.8234 42.6347 30.0128C42.8194 30.2022 43.0632 30.3537 43.3663 30.4673C43.674 30.5857 44.0481 30.6449 44.4884 30.6449C45.1466 30.6449 45.6887 30.4839 46.1148 30.1619C46.5457 29.8447 46.7611 29.312 46.7611 28.5639V26.5682H46.6333C46.5007 26.8712 46.3019 27.1577 46.0367 27.4276C45.7716 27.6974 45.4307 27.9176 45.014 28.0881C44.5973 28.2585 44.1002 28.3438 43.5225 28.3438C42.7034 28.3438 41.9576 28.1544 41.2853 27.7756C40.6177 27.392 40.085 26.8073 39.6873 26.0213C39.2943 25.2306 39.0978 24.2315 39.0978 23.0241C39.0978 21.7884 39.299 20.7562 39.7015 19.9276C40.1039 19.099 40.639 18.4787 41.3066 18.0668C41.9789 17.6548 42.7152 17.4489 43.5154 17.4489C44.1262 17.4489 44.6376 17.553 45.0495 17.7614C45.4614 17.965 45.7929 18.2206 46.0438 18.5284C46.2995 18.8314 46.496 19.1297 46.6333 19.4233H46.7469V17.5909H49.7512V28.6065C49.7512 29.5346 49.5239 30.3111 49.0694 30.9361C48.6148 31.5611 47.9851 32.0298 47.1802 32.3423C46.38 32.6596 45.4591 32.8182 44.4174 32.8182ZM44.4813 26.071C44.969 26.071 45.3809 25.9503 45.7171 25.7088C46.058 25.4626 46.3184 25.1122 46.4984 24.6577C46.683 24.1984 46.7753 23.6491 46.7753 23.0099C46.7753 22.3707 46.6854 21.8168 46.5055 21.348C46.3255 20.8745 46.0651 20.5076 45.7242 20.2472C45.3833 19.9867 44.969 19.8565 44.4813 19.8565C43.9842 19.8565 43.5651 19.9915 43.2242 20.2614C42.8833 20.5265 42.6253 20.8958 42.4501 21.3693C42.2749 21.8428 42.1873 22.3897 42.1873 23.0099C42.1873 23.6397 42.2749 24.1842 42.4501 24.6435C42.63 25.098 42.888 25.4508 43.2242 25.7017C43.5651 25.9479 43.9842 26.071 44.4813 26.071ZM54.7544 22.1932V28.5H51.7289V17.5909H54.6124V19.5156H54.7402C54.9817 18.8812 55.3865 18.3793 55.9547 18.0099C56.5229 17.6359 57.2118 17.4489 58.0215 17.4489C58.7791 17.4489 59.4396 17.6146 60.003 17.946C60.5665 18.2775 61.0044 18.7509 61.3169 19.3665C61.6294 19.9773 61.7857 20.7064 61.7857 21.554V28.5H58.7601V22.0938C58.7649 21.4261 58.5944 20.9053 58.2488 20.5312C57.9031 20.1525 57.4273 19.9631 56.8212 19.9631C56.414 19.9631 56.0542 20.0507 55.7417 20.2259C55.4339 20.401 55.1924 20.6567 55.0172 20.9929C54.8468 21.3243 54.7592 21.7244 54.7544 22.1932ZM74.9349 23.8551V17.5909H77.9605V28.5H75.0557V26.5185H74.942C74.6958 27.1577 74.2862 27.6714 73.7133 28.0597C73.1451 28.4479 72.4515 28.642 71.6324 28.642C70.9032 28.642 70.2616 28.4763 69.7076 28.1449C69.1537 27.8134 68.7204 27.3423 68.4079 26.7315C68.1002 26.1207 67.9439 25.3892 67.9392 24.5369V17.5909H70.9648V23.9972C70.9695 24.6411 71.1423 25.1501 71.4832 25.5241C71.8241 25.8982 72.281 26.0852 72.854 26.0852C73.2185 26.0852 73.5594 26.0024 73.8767 25.8366C74.1939 25.6662 74.4496 25.4152 74.6437 25.0838C74.8426 24.7524 74.9397 24.3428 74.9349 23.8551ZM79.9506 32.5909V17.5909H82.9335V19.4233H83.0685C83.2011 19.1297 83.3928 18.8314 83.6438 18.5284C83.8995 18.2206 84.2309 17.965 84.6381 17.7614C85.05 17.553 85.5614 17.4489 86.1722 17.4489C86.9676 17.4489 87.7015 17.6572 88.3739 18.0739C89.0462 18.4858 89.5836 19.1084 89.9861 19.9418C90.3886 20.7704 90.5898 21.8097 90.5898 23.0597C90.5898 24.2765 90.3933 25.304 90.0003 26.142C89.612 26.9754 89.0817 27.6075 88.4094 28.0384C87.7418 28.4645 86.9937 28.6776 86.1651 28.6776C85.578 28.6776 85.0784 28.5805 84.6665 28.3864C84.2593 28.1922 83.9255 27.9484 83.6651 27.6548C83.4047 27.3565 83.2058 27.0559 83.0685 26.7528H82.9762V32.5909H79.9506ZM82.9122 23.0455C82.9122 23.6941 83.0022 24.2599 83.1821 24.7429C83.362 25.2259 83.6225 25.6023 83.9634 25.8722C84.3043 26.1373 84.7186 26.2699 85.2063 26.2699C85.6987 26.2699 86.1154 26.1349 86.4563 25.8651C86.7972 25.5904 87.0552 25.2116 87.2304 24.7287C87.4103 24.241 87.5003 23.6799 87.5003 23.0455C87.5003 22.4157 87.4127 21.8617 87.2375 21.3835C87.0623 20.9053 86.8043 20.5312 86.4634 20.2614C86.1225 19.9915 85.7034 19.8565 85.2063 19.8565C84.7138 19.8565 84.2972 19.9867 83.9563 20.2472C83.6201 20.5076 83.362 20.8769 83.1821 21.3551C83.0022 21.8333 82.9122 22.3968 82.9122 23.0455Z" fill="white"/>
</svg>
