<svg width="112" height="43" viewBox="0 0 112 43" fill="none" xmlns="http://www.w3.org/2000/svg">
<path d="M6 0.5H106C109.038 0.5 111.5 2.96243 111.5 6V37C111.5 40.0376 109.038 42.5 106 42.5H6C2.96243 42.5 0.5 40.0376 0.5 37V6C0.5 2.96243 2.96243 0.5 6 0.5Z" stroke="white"/>
<path d="M33.3589 18.1378C33.3021 17.5649 33.0582 17.1198 32.6274 16.8026C32.1965 16.4853 31.6117 16.3267 30.8731 16.3267C30.3712 16.3267 29.9474 16.3977 29.6018 16.5398C29.2561 16.6771 28.991 16.8688 28.8063 17.1151C28.6264 17.3613 28.5364 17.6406 28.5364 17.9531C28.527 18.2135 28.5814 18.4408 28.6998 18.6349C28.8229 18.8291 28.991 18.9972 29.2041 19.1392C29.4171 19.2765 29.6633 19.3973 29.9427 19.5014C30.2221 19.6009 30.5204 19.6861 30.8376 19.7571L32.1444 20.0696C32.7789 20.2116 33.3613 20.401 33.8916 20.6378C34.4219 20.8745 34.8811 21.1657 35.2694 21.5114C35.6577 21.857 35.9583 22.2642 36.1714 22.733C36.3892 23.2017 36.5005 23.7391 36.5052 24.3452C36.5005 25.2353 36.2732 26.0071 35.8234 26.6605C35.3783 27.3092 34.7344 27.8134 33.8916 28.1733C33.0535 28.5284 32.0426 28.706 30.8589 28.706C29.6847 28.706 28.6619 28.526 27.7907 28.1662C26.9242 27.8063 26.2472 27.2737 25.7595 26.5682C25.2765 25.858 25.0232 24.9796 24.9995 23.9332H27.9754C28.0085 24.4209 28.1482 24.8281 28.3944 25.1548C28.6454 25.4768 28.9792 25.7206 29.3958 25.8864C29.8172 26.0473 30.2931 26.1278 30.8234 26.1278C31.3442 26.1278 31.7964 26.0521 32.1799 25.9006C32.5682 25.7491 32.8688 25.5384 33.0819 25.2685C33.295 24.9986 33.4015 24.6884 33.4015 24.3381C33.4015 24.0114 33.3044 23.7367 33.1103 23.5142C32.9209 23.2917 32.6416 23.1023 32.2722 22.946C31.9077 22.7898 31.4602 22.6477 30.9299 22.5199L29.3461 22.1222C28.1198 21.8239 27.1515 21.3575 26.4413 20.723C25.7311 20.0885 25.3783 19.2339 25.383 18.1591C25.3783 17.2784 25.6127 16.509 26.0862 15.8509C26.5644 15.1927 27.2202 14.679 28.0535 14.3097C28.8868 13.9403 29.8338 13.7557 30.8944 13.7557C31.974 13.7557 32.9162 13.9403 33.7211 14.3097C34.5308 14.679 35.1605 15.1927 35.6103 15.8509C36.0601 16.509 36.2921 17.2713 36.3063 18.1378H33.3589ZM38.0869 28.5V17.5909H41.1125V28.5H38.0869ZM39.6068 16.1847C39.157 16.1847 38.7711 16.0355 38.4491 15.7372C38.1319 15.4342 37.9733 15.072 37.9733 14.6506C37.9733 14.2339 38.1319 13.8764 38.4491 13.5781C38.7711 13.2751 39.157 13.1236 39.6068 13.1236C40.0566 13.1236 40.4401 13.2751 40.7574 13.5781C41.0793 13.8764 41.2403 14.2339 41.2403 14.6506C41.2403 15.072 41.0793 15.4342 40.7574 15.7372C40.4401 16.0355 40.0566 16.1847 39.6068 16.1847ZM48.0209 32.8182C47.0408 32.8182 46.2004 32.6832 45.4996 32.4134C44.8036 32.1482 44.2496 31.786 43.8377 31.3267C43.4257 30.8674 43.1582 30.3513 43.0351 29.7784L45.8334 29.402C45.9186 29.6198 46.0536 29.8234 46.2382 30.0128C46.4229 30.2022 46.6667 30.3537 46.9698 30.4673C47.2775 30.5857 47.6516 30.6449 48.0919 30.6449C48.7501 30.6449 49.2922 30.4839 49.7184 30.1619C50.1492 29.8447 50.3647 29.312 50.3647 28.5639V26.5682H50.2368C50.1042 26.8712 49.9054 27.1577 49.6402 27.4276C49.3751 27.6974 49.0342 27.9176 48.6175 28.0881C48.2008 28.2585 47.7037 28.3438 47.126 28.3438C46.3069 28.3438 45.5612 28.1544 44.8888 27.7756C44.2212 27.392 43.6885 26.8073 43.2908 26.0213C42.8978 25.2306 42.7013 24.2315 42.7013 23.0241C42.7013 21.7884 42.9025 20.7562 43.305 19.9276C43.7075 19.099 44.2425 18.4787 44.9101 18.0668C45.5825 17.6548 46.3187 17.4489 47.1189 17.4489C47.7297 17.4489 48.2411 17.553 48.653 17.7614C49.0649 17.965 49.3964 18.2206 49.6473 18.5284C49.903 18.8314 50.0995 19.1297 50.2368 19.4233H50.3505V17.5909H53.3547V28.6065C53.3547 29.5346 53.1274 30.3111 52.6729 30.9361C52.2184 31.5611 51.5886 32.0298 50.7837 32.3423C49.9835 32.6596 49.0626 32.8182 48.0209 32.8182ZM48.0848 26.071C48.5725 26.071 48.9845 25.9503 49.3206 25.7088C49.6615 25.4626 49.922 25.1122 50.1019 24.6577C50.2865 24.1984 50.3789 23.6491 50.3789 23.0099C50.3789 22.3707 50.2889 21.8168 50.109 21.348C49.9291 20.8745 49.6686 20.5076 49.3277 20.2472C48.9868 19.9867 48.5725 19.8565 48.0848 19.8565C47.5877 19.8565 47.1686 19.9915 46.8277 20.2614C46.4868 20.5265 46.2288 20.8958 46.0536 21.3693C45.8784 21.8428 45.7908 22.3897 45.7908 23.0099C45.7908 23.6397 45.8784 24.1842 46.0536 24.6435C46.2335 25.098 46.4916 25.4508 46.8277 25.7017C47.1686 25.9479 47.5877 26.071 48.0848 26.071ZM58.358 22.1932V28.5H55.3324V17.5909H58.2159V19.5156H58.3438C58.5852 18.8812 58.9901 18.3793 59.5582 18.0099C60.1264 17.6359 60.8153 17.4489 61.625 17.4489C62.3826 17.4489 63.0431 17.6146 63.6065 17.946C64.17 18.2775 64.608 18.7509 64.9205 19.3665C65.233 19.9773 65.3892 20.7064 65.3892 21.554V28.5H62.3636V22.0938C62.3684 21.4261 62.1979 20.9053 61.8523 20.5312C61.5066 20.1525 61.0308 19.9631 60.4247 19.9631C60.0175 19.9631 59.6577 20.0507 59.3452 20.2259C59.0374 20.401 58.7959 20.6567 58.6207 20.9929C58.4503 21.3243 58.3627 21.7244 58.358 22.1932ZM71.5427 28.5V17.5909H74.5683V28.5H71.5427ZM73.0626 16.1847C72.6128 16.1847 72.2269 16.0355 71.9049 15.7372C71.5877 15.4342 71.4291 15.072 71.4291 14.6506C71.4291 14.2339 71.5877 13.8764 71.9049 13.5781C72.2269 13.2751 72.6128 13.1236 73.0626 13.1236C73.5124 13.1236 73.8959 13.2751 74.2132 13.5781C74.5351 13.8764 74.6961 14.2339 74.6961 14.6506C74.6961 15.072 74.5351 15.4342 74.2132 15.7372C73.8959 16.0355 73.5124 16.1847 73.0626 16.1847ZM79.5875 22.1932V28.5H76.5619V17.5909H79.4454V19.5156H79.5733C79.8148 18.8812 80.2196 18.3793 80.7878 18.0099C81.356 17.6359 82.0449 17.4489 82.8545 17.4489C83.6121 17.4489 84.2726 17.6146 84.8361 17.946C85.3995 18.2775 85.8375 18.7509 86.15 19.3665C86.4625 19.9773 86.6187 20.7064 86.6187 21.554V28.5H83.5932V22.0938C83.5979 21.4261 83.4274 20.9053 83.0818 20.5312C82.7362 20.1525 82.2603 19.9631 81.6542 19.9631C81.247 19.9631 80.8872 20.0507 80.5747 20.2259C80.2669 20.401 80.0255 20.6567 79.8503 20.9929C79.6798 21.3243 79.5922 21.7244 79.5875 22.1932Z" fill="white"/>
</svg>
